<?xml version="1.0" standalone="no"?>
<!DOCTYPE svg PUBLIC "-//W3C//DTD SVG 20010904//EN"
 "http://www.w3.org/TR/2001/REC-SVG-20010904/DTD/svg10.dtd">
<svg version="1.0" xmlns="http://www.w3.org/2000/svg"
 width="260.000000pt" height="260.000000pt" viewBox="0 0 260.000000 260.000000"
 preserveAspectRatio="xMidYMid meet">
<metadata>
Created by potrace 1.11, written by Peter Selinger 2001-2013
</metadata>
<g transform="translate(0.000000,260.000000) scale(0.100000,-0.100000)"
fill="#000000" stroke="none">
<path d="M1140 2315 c-324 -47 -603 -165 -806 -341 -79 -69 -131 -137 -199
-262 -66 -122 -73 -150 -49 -190 l17 -31 -36 -53 c-51 -73 -51 -116 0 -162
l36 -34 -31 -61 c-54 -102 -35 -181 47 -197 19 -4 39 -20 55 -43 24 -33 25
-43 20 -98 -6 -56 -5 -63 18 -86 24 -24 107 -45 127 -33 5 4 27 -14 49 -39 31
-35 41 -56 46 -96 5 -35 15 -59 32 -76 25 -24 30 -25 101 -19 47 4 82 2 96 -5
37 -19 87 -72 87 -92 0 -10 13 -32 29 -48 37 -37 76 -38 149 -3 52 25 59 26
109 14 46 -10 57 -17 78 -50 30 -48 52 -60 105 -60 35 0 48 6 80 39 27 27 50
40 79 45 35 5 41 10 41 31 0 25 -1 25 -70 23 -57 -3 -70 -6 -70 -20 0 -9 -14
-28 -30 -42 -41 -34 -70 -23 -90 33 -8 22 -19 40 -25 38 -5 -2 -24 2 -42 10
-18 7 -60 13 -93 13 -33 0 -60 4 -60 10 0 6 -4 10 -10 10 -5 0 -10 -6 -10 -14
0 -17 -43 -46 -68 -46 -28 0 -46 27 -45 66 1 22 -3 34 -10 31 -6 -2 -30 11
-54 29 -59 45 -125 69 -151 55 -55 -29 -107 -2 -100 53 3 26 -49 111 -93 151
-28 24 -30 29 -15 37 18 10 50 67 42 75 -8 8 -27 -8 -24 -19 7 -20 -57 -78
-86 -78 -38 0 -66 17 -66 40 0 23 20 70 37 88 7 7 13 18 13 23 0 15 -18 10
-28 -7 -7 -13 -14 -8 -35 29 -30 51 -71 87 -98 87 -9 0 -24 7 -33 15 -20 20
-9 55 42 136 38 59 46 93 17 69 -10 -8 -14 -5 -19 14 -3 14 -19 34 -36 46 -34
24 -32 32 17 104 37 55 40 76 16 117 -17 29 -17 30 31 122 65 121 101 171 187
252 205 193 533 322 899 355 63 5 125 10 138 10 17 0 22 6 22 25 l0 25 -97 -1
c-54 -1 -136 -7 -183 -14z"/>
<path d="M1265 2229 c-437 -34 -823 -237 -957 -504 -41 -80 -58 -152 -58 -239
1 -284 257 -542 657 -665 187 -57 255 -66 518 -66 210 1 253 3 342 23 373 81
651 258 762 483 107 219 64 436 -123 624 -200 201 -481 315 -851 345 -132 11
-145 11 -290 -1z m-27 -384 c39 -17 78 -49 93 -78 8 -15 3 -20 -33 -36 -42
-18 -43 -18 -64 1 -57 52 -174 27 -174 -37 0 -32 38 -59 118 -86 37 -12 83
-30 103 -40 155 -78 117 -291 -58 -330 -101 -23 -210 17 -249 92 -18 36 -20
32 30 53 39 16 40 16 60 -8 41 -47 109 -60 165 -31 32 16 41 33 41 75 0 38
-33 63 -128 94 -132 44 -182 95 -182 183 1 121 150 201 278 148z m482 -45 l0
-50 -65 0 -65 0 0 -255 0 -255 -50 0 -50 0 0 255 0 255 -70 0 -70 0 0 50 0 50
185 0 185 0 0 -50z m140 -255 l0 -305 -50 0 -50 0 0 305 0 305 50 0 50 0 0
-305z m357 277 c143 -75 148 -298 8 -370 l-36 -18 73 -64 c40 -35 73 -66 73
-70 0 -3 -12 -21 -27 -39 -33 -38 -15 -47 -171 88 -80 69 -97 89 -97 112 0 33
32 59 73 59 66 0 117 50 117 115 0 77 -50 115 -155 115 l-65 0 0 -255 0 -255
-50 0 -50 0 0 280 0 281 26 26 c25 24 28 25 132 21 85 -3 116 -8 149 -26z
m-1473 -1 c9 -10 66 -141 126 -290 l109 -273 -33 -13 c-56 -24 -57 -23 -86 45
l-26 65 -81 3 -81 3 -16 40 c-9 21 -16 42 -16 44 0 3 34 5 75 5 41 0 75 3 75
7 0 14 -85 223 -91 223 -3 0 -45 -100 -94 -222 -48 -123 -91 -226 -94 -229 -3
-4 -25 2 -49 12 l-42 18 19 48 c173 437 205 512 225 525 20 14 63 8 80 -11z"/>
<path d="M197 1083 c-26 -40 -26 -63 -1 -42 8 7 13 18 10 26 -3 7 1 13 8 13
17 0 29 27 16 35 -5 3 -20 -11 -33 -32z"/>
<path d="M301 966 c-9 -11 -9 -16 0 -21 10 -7 28 10 29 28 0 12 -17 8 -29 -7z"/>
<path d="M540 770 c-6 -11 -8 -20 -5 -20 4 0 -1 -7 -9 -16 -18 -17 -21 -34 -7
-34 14 0 52 78 41 85 -5 3 -14 -4 -20 -15z"/>
<path d="M661 702 c-6 -11 -7 -22 -4 -26 3 -3 2 -6 -4 -6 -6 0 -13 -9 -16 -20
-3 -13 0 -20 9 -20 8 0 14 7 14 15 0 9 7 26 16 39 9 15 11 26 5 30 -5 4 -15
-2 -20 -12z"/>
<path d="M493 675 c-8 -22 6 -33 17 -15 13 20 12 30 0 30 -6 0 -13 -7 -17 -15z"/>
<path d="M833 625 c-3 -9 -3 -18 0 -21 9 -9 27 6 27 22 0 19 -19 18 -27 -1z"/>
<path d="M617 600 c-3 -13 0 -20 9 -20 8 0 14 9 14 20 0 11 -4 20 -9 20 -5 0
-11 -9 -14 -20z"/>
<path d="M967 603 c-11 -10 -8 -43 3 -43 6 0 10 11 10 25 0 26 -2 29 -13 18z"/>
<path d="M817 570 c-3 -13 0 -20 9 -20 8 0 14 9 14 20 0 11 -4 20 -9 20 -5 0
-11 -9 -14 -20z"/>
<path d="M1157 550 c-3 -13 0 -20 9 -20 8 0 14 9 14 20 0 11 -4 20 -9 20 -5 0
-11 -9 -14 -20z"/>
<path d="M1300 540 c0 -11 5 -20 10 -20 6 0 10 9 10 20 0 11 -4 20 -10 20 -5
0 -10 -9 -10 -20z"/>
<path d="M947 530 c-3 -13 0 -20 9 -20 8 0 14 9 14 20 0 11 -4 20 -9 20 -5 0
-11 -9 -14 -20z"/>
<path d="M800 510 c0 -24 15 -27 24 -4 9 22 8 24 -9 24 -8 0 -15 -9 -15 -20z"/>
<path d="M1150 490 c0 -11 5 -20 10 -20 6 0 10 9 10 20 0 11 -4 20 -10 20 -5
0 -10 -9 -10 -20z"/>
<path d="M936 485 c-8 -23 -8 -35 3 -35 13 0 23 32 13 42 -6 6 -12 3 -16 -7z"/>
<path d="M1290 480 c0 -11 5 -20 10 -20 6 0 10 9 10 20 0 11 -4 20 -10 20 -5
0 -10 -9 -10 -20z"/>
<path d="M1140 441 c0 -11 5 -23 10 -26 6 -4 10 5 10 19 0 14 -4 26 -10 26 -5
0 -10 -9 -10 -19z"/>
<path d="M1290 419 c0 -11 5 -17 10 -14 6 3 10 13 10 21 0 8 -4 14 -10 14 -5
0 -10 -9 -10 -21z"/>
</g>
</svg>
